# xmcd CD database file
#
# Track frame offsets:
#	150
#	23357
#	44854
#	61339
#	81857
#	110854
#	130231
#	144893
#	161705
#	179524
#	196150
#	214011
#	231404
#
# Disc length: 3359 seconds
#
# Revision: 0
# Processed by: cddbd v1.5.2PL0 Copyright (c) Steve Scherf et al.
# Submitted via: CDex 1.50
#
DISCID=ba0d1d0d
DTITLE=Nils Wülker - Up
DYEAR=2015
DGENRE=Jazz
TTITLE0=Dawn
TTITLE1=Season - feat. Max Mutzke
TTITLE2=A fine line
TTITLE3=I just want to play - feat. Xavier Naidoo
TTITLE4=Confluence
TTITLE5=Homeless diamond - feat. Lauren Flynn
TTITLE6=Three grains of saffron - feat. David McAlmont
TTITLE7=Kelvingrove - feat. Craig Armstrong
TTITLE8=Worth the wait - feat. Jill Scott
TTITLE9=Bridges
TTITLE10=Keeps on walking - feat. Sasha
TTITLE11=Reading Kafka on the shore - feat. Ozark Henry
TTITLE12=Prism
EXTD=YEAR: 2015
EXTT0=
EXTT1=
EXTT2=
EXTT3=
EXTT4=
EXTT5=
EXTT6=
EXTT7=
EXTT8=
EXTT9=
EXTT10=
EXTT11=
EXTT12=
PLAYORDER=
